<mxfile host="app.diagrams.net" modified="2021-02-19T16:17:54.545Z" agent="5.0 (Windows NT 10.0; Win64; x64) AppleWebKit/537.36 (KHTML, like Gecko) Chrome/88.0.4324.182 Safari/537.36" etag="UGjWnIFI-Z2RoKILOr59" version="14.4.2" type="github">
  <diagram id="tTgodg-B9qKGD4z6R8Dz" name="Page-1">
    <mxGraphModel dx="868" dy="482" grid="1" gridSize="10" guides="1" tooltips="1" connect="1" arrows="1" fold="1" page="1" pageScale="1" pageWidth="850" pageHeight="1100" math="0" shadow="0">
      <root>
        <mxCell id="0" />
        <mxCell id="1" parent="0" />
        <mxCell id="gSeQkJcZgtZhVVVM5ms9-1" value="" style="strokeWidth=2;html=1;shape=mxgraph.flowchart.start_1;whiteSpace=wrap;" vertex="1" parent="1">
          <mxGeometry x="188" y="40" width="100" height="60" as="geometry" />
        </mxCell>
        <mxCell id="gSeQkJcZgtZhVVVM5ms9-2" value="Inicio" style="text;html=1;strokeColor=none;fillColor=none;align=center;verticalAlign=middle;whiteSpace=wrap;rounded=0;" vertex="1" parent="1">
          <mxGeometry x="218" y="60" width="40" height="20" as="geometry" />
        </mxCell>
        <mxCell id="gSeQkJcZgtZhVVVM5ms9-3" value="" style="endArrow=classic;html=1;exitX=0.5;exitY=1;exitDx=0;exitDy=0;exitPerimeter=0;" edge="1" parent="1" source="gSeQkJcZgtZhVVVM5ms9-1" target="gSeQkJcZgtZhVVVM5ms9-4">
          <mxGeometry width="50" height="50" relative="1" as="geometry">
            <mxPoint x="358" y="250" as="sourcePoint" />
            <mxPoint x="238" y="140" as="targetPoint" />
          </mxGeometry>
        </mxCell>
        <mxCell id="gSeQkJcZgtZhVVVM5ms9-4" value="Ingrese S(salario)" style="strokeWidth=2;html=1;shape=mxgraph.flowchart.display;whiteSpace=wrap;" vertex="1" parent="1">
          <mxGeometry x="168" y="140" width="140" height="60" as="geometry" />
        </mxCell>
        <mxCell id="gSeQkJcZgtZhVVVM5ms9-5" value="" style="endArrow=classic;html=1;exitX=0.5;exitY=1;exitDx=0;exitDy=0;exitPerimeter=0;" edge="1" parent="1" source="gSeQkJcZgtZhVVVM5ms9-4">
          <mxGeometry width="50" height="50" relative="1" as="geometry">
            <mxPoint x="258" y="210" as="sourcePoint" />
            <mxPoint x="238" y="240" as="targetPoint" />
          </mxGeometry>
        </mxCell>
        <mxCell id="gSeQkJcZgtZhVVVM5ms9-7" value="Leer (S)" style="html=1;strokeWidth=2;shape=manualInput;whiteSpace=wrap;rounded=1;size=26;arcSize=11;verticalAlign=middle;" vertex="1" parent="1">
          <mxGeometry x="188" y="230" width="100" height="60" as="geometry" />
        </mxCell>
        <mxCell id="gSeQkJcZgtZhVVVM5ms9-8" value="" style="endArrow=classic;html=1;exitX=0.5;exitY=1;exitDx=0;exitDy=0;" edge="1" parent="1" source="gSeQkJcZgtZhVVVM5ms9-7">
          <mxGeometry width="50" height="50" relative="1" as="geometry">
            <mxPoint x="238" y="240" as="sourcePoint" />
            <mxPoint x="238" y="320" as="targetPoint" />
          </mxGeometry>
        </mxCell>
        <mxCell id="gSeQkJcZgtZhVVVM5ms9-10" value="&lt;font style=&quot;font-size: 13px&quot;&gt;S&amp;lt;500&lt;/font&gt;" style="strokeWidth=2;html=1;shape=mxgraph.flowchart.decision;whiteSpace=wrap;" vertex="1" parent="1">
          <mxGeometry x="171" y="322" width="134" height="80" as="geometry" />
        </mxCell>
        <mxCell id="gSeQkJcZgtZhVVVM5ms9-12" value="" style="endArrow=classic;html=1;exitX=1;exitY=0.5;exitDx=0;exitDy=0;exitPerimeter=0;" edge="1" parent="1">
          <mxGeometry width="50" height="50" relative="1" as="geometry">
            <mxPoint x="171" y="362" as="sourcePoint" />
            <mxPoint x="78" y="400" as="targetPoint" />
            <Array as="points">
              <mxPoint x="78" y="360" />
            </Array>
          </mxGeometry>
        </mxCell>
        <mxCell id="gSeQkJcZgtZhVVVM5ms9-14" value="NO" style="text;html=1;strokeColor=none;fillColor=none;align=center;verticalAlign=middle;whiteSpace=wrap;rounded=0;" vertex="1" parent="1">
          <mxGeometry x="368" y="330" width="40" height="20" as="geometry" />
        </mxCell>
        <mxCell id="gSeQkJcZgtZhVVVM5ms9-15" value="SI" style="text;html=1;strokeColor=none;fillColor=none;align=center;verticalAlign=middle;whiteSpace=wrap;rounded=0;" vertex="1" parent="1">
          <mxGeometry x="98" y="330" width="40" height="20" as="geometry" />
        </mxCell>
        <mxCell id="gSeQkJcZgtZhVVVM5ms9-17" value="SN=S+0,15*S" style="rounded=1;whiteSpace=wrap;html=1;" vertex="1" parent="1">
          <mxGeometry x="20" y="402" width="120" height="60" as="geometry" />
        </mxCell>
        <mxCell id="gSeQkJcZgtZhVVVM5ms9-18" value="500&amp;lt;=S&amp;lt;1000" style="rhombus;whiteSpace=wrap;html=1;" vertex="1" parent="1">
          <mxGeometry x="390" y="398" width="120" height="68" as="geometry" />
        </mxCell>
        <mxCell id="gSeQkJcZgtZhVVVM5ms9-19" value="" style="endArrow=classic;html=1;" edge="1" parent="1">
          <mxGeometry width="50" height="50" relative="1" as="geometry">
            <mxPoint x="300" y="358" as="sourcePoint" />
            <mxPoint x="450" y="398" as="targetPoint" />
            <Array as="points">
              <mxPoint x="450" y="358" />
            </Array>
          </mxGeometry>
        </mxCell>
        <mxCell id="gSeQkJcZgtZhVVVM5ms9-21" value="" style="endArrow=classic;html=1;exitX=1;exitY=0.5;exitDx=0;exitDy=0;exitPerimeter=0;" edge="1" parent="1">
          <mxGeometry width="50" height="50" relative="1" as="geometry">
            <mxPoint x="390" y="432" as="sourcePoint" />
            <mxPoint x="297" y="470" as="targetPoint" />
            <Array as="points">
              <mxPoint x="297" y="430" />
            </Array>
          </mxGeometry>
        </mxCell>
        <mxCell id="gSeQkJcZgtZhVVVM5ms9-22" value="SI" style="text;html=1;strokeColor=none;fillColor=none;align=center;verticalAlign=middle;whiteSpace=wrap;rounded=0;" vertex="1" parent="1">
          <mxGeometry x="330" y="410" width="40" height="20" as="geometry" />
        </mxCell>
        <mxCell id="gSeQkJcZgtZhVVVM5ms9-23" value="SN=S+0,1*S" style="rounded=1;whiteSpace=wrap;html=1;" vertex="1" parent="1">
          <mxGeometry x="240" y="470" width="120" height="60" as="geometry" />
        </mxCell>
        <mxCell id="gSeQkJcZgtZhVVVM5ms9-24" value="" style="endArrow=classic;html=1;" edge="1" parent="1">
          <mxGeometry width="50" height="50" relative="1" as="geometry">
            <mxPoint x="510" y="430" as="sourcePoint" />
            <mxPoint x="630" y="470" as="targetPoint" />
            <Array as="points">
              <mxPoint x="630" y="430" />
            </Array>
          </mxGeometry>
        </mxCell>
        <mxCell id="gSeQkJcZgtZhVVVM5ms9-25" value="NO" style="text;html=1;strokeColor=none;fillColor=none;align=center;verticalAlign=middle;whiteSpace=wrap;rounded=0;" vertex="1" parent="1">
          <mxGeometry x="530" y="410" width="40" height="20" as="geometry" />
        </mxCell>
        <mxCell id="gSeQkJcZgtZhVVVM5ms9-26" value="S&amp;gt;=1000" style="rhombus;whiteSpace=wrap;html=1;" vertex="1" parent="1">
          <mxGeometry x="570" y="470" width="120" height="68" as="geometry" />
        </mxCell>
        <mxCell id="gSeQkJcZgtZhVVVM5ms9-27" value="SI" style="text;html=1;strokeColor=none;fillColor=none;align=center;verticalAlign=middle;whiteSpace=wrap;rounded=0;" vertex="1" parent="1">
          <mxGeometry x="510" y="484" width="40" height="20" as="geometry" />
        </mxCell>
        <mxCell id="gSeQkJcZgtZhVVVM5ms9-28" value="" style="endArrow=classic;html=1;exitX=1;exitY=0.5;exitDx=0;exitDy=0;exitPerimeter=0;" edge="1" parent="1">
          <mxGeometry width="50" height="50" relative="1" as="geometry">
            <mxPoint x="570" y="505" as="sourcePoint" />
            <mxPoint x="480" y="540" as="targetPoint" />
            <Array as="points">
              <mxPoint x="480" y="503" />
            </Array>
          </mxGeometry>
        </mxCell>
        <mxCell id="gSeQkJcZgtZhVVVM5ms9-29" value="SN=S+0,05*S" style="rounded=1;whiteSpace=wrap;html=1;" vertex="1" parent="1">
          <mxGeometry x="418" y="544" width="120" height="60" as="geometry" />
        </mxCell>
        <mxCell id="gSeQkJcZgtZhVVVM5ms9-30" value="" style="endArrow=classic;html=1;" edge="1" parent="1">
          <mxGeometry width="50" height="50" relative="1" as="geometry">
            <mxPoint x="690" y="504" as="sourcePoint" />
            <mxPoint x="750" y="544" as="targetPoint" />
            <Array as="points">
              <mxPoint x="750" y="504" />
            </Array>
          </mxGeometry>
        </mxCell>
        <mxCell id="gSeQkJcZgtZhVVVM5ms9-31" value="NO" style="text;html=1;strokeColor=none;fillColor=none;align=center;verticalAlign=middle;whiteSpace=wrap;rounded=0;" vertex="1" parent="1">
          <mxGeometry x="690" y="480" width="40" height="20" as="geometry" />
        </mxCell>
        <mxCell id="gSeQkJcZgtZhVVVM5ms9-35" value="SN=S" style="rounded=1;whiteSpace=wrap;html=1;" vertex="1" parent="1">
          <mxGeometry x="686" y="544" width="120" height="60" as="geometry" />
        </mxCell>
        <mxCell id="gSeQkJcZgtZhVVVM5ms9-41" value="&amp;nbsp; &amp;nbsp; Mostrar &quot;El salario anterior es&quot; + S &quot;y el salario nuevo es&quot; + SN" style="strokeWidth=2;html=1;shape=mxgraph.flowchart.display;whiteSpace=wrap;" vertex="1" parent="1">
          <mxGeometry x="320" y="730" width="170" height="100" as="geometry" />
        </mxCell>
        <mxCell id="gSeQkJcZgtZhVVVM5ms9-45" value="" style="endArrow=none;html=1;entryX=0.5;entryY=1;entryDx=0;entryDy=0;" edge="1" parent="1" target="gSeQkJcZgtZhVVVM5ms9-17">
          <mxGeometry width="50" height="50" relative="1" as="geometry">
            <mxPoint x="80" y="680" as="sourcePoint" />
            <mxPoint x="450" y="670" as="targetPoint" />
          </mxGeometry>
        </mxCell>
        <mxCell id="gSeQkJcZgtZhVVVM5ms9-46" value="" style="endArrow=none;html=1;" edge="1" parent="1">
          <mxGeometry width="50" height="50" relative="1" as="geometry">
            <mxPoint x="750" y="680" as="sourcePoint" />
            <mxPoint x="80" y="680" as="targetPoint" />
          </mxGeometry>
        </mxCell>
        <mxCell id="gSeQkJcZgtZhVVVM5ms9-47" value="" style="endArrow=none;html=1;" edge="1" parent="1">
          <mxGeometry width="50" height="50" relative="1" as="geometry">
            <mxPoint x="478" y="680" as="sourcePoint" />
            <mxPoint x="477.5" y="604" as="targetPoint" />
          </mxGeometry>
        </mxCell>
        <mxCell id="gSeQkJcZgtZhVVVM5ms9-48" value="" style="endArrow=none;html=1;" edge="1" parent="1">
          <mxGeometry width="50" height="50" relative="1" as="geometry">
            <mxPoint x="299.5" y="680" as="sourcePoint" />
            <mxPoint x="300" y="530" as="targetPoint" />
          </mxGeometry>
        </mxCell>
        <mxCell id="gSeQkJcZgtZhVVVM5ms9-50" value="" style="endArrow=none;html=1;" edge="1" parent="1">
          <mxGeometry width="50" height="50" relative="1" as="geometry">
            <mxPoint x="750.5" y="680" as="sourcePoint" />
            <mxPoint x="750" y="604" as="targetPoint" />
          </mxGeometry>
        </mxCell>
        <mxCell id="gSeQkJcZgtZhVVVM5ms9-51" value="" style="endArrow=classic;html=1;" edge="1" parent="1">
          <mxGeometry width="50" height="50" relative="1" as="geometry">
            <mxPoint x="400" y="680" as="sourcePoint" />
            <mxPoint x="400" y="730" as="targetPoint" />
          </mxGeometry>
        </mxCell>
        <mxCell id="gSeQkJcZgtZhVVVM5ms9-53" value="" style="endArrow=classic;html=1;" edge="1" parent="1">
          <mxGeometry width="50" height="50" relative="1" as="geometry">
            <mxPoint x="400" y="830" as="sourcePoint" />
            <mxPoint x="400" y="830" as="targetPoint" />
          </mxGeometry>
        </mxCell>
        <mxCell id="gSeQkJcZgtZhVVVM5ms9-55" value="Fin" style="strokeWidth=2;html=1;shape=mxgraph.flowchart.start_1;whiteSpace=wrap;" vertex="1" parent="1">
          <mxGeometry x="350" y="870" width="100" height="60" as="geometry" />
        </mxCell>
        <mxCell id="gSeQkJcZgtZhVVVM5ms9-56" value="" style="endArrow=classic;html=1;exitX=0.465;exitY=1.01;exitDx=0;exitDy=0;exitPerimeter=0;entryX=0.5;entryY=0;entryDx=0;entryDy=0;entryPerimeter=0;" edge="1" parent="1" source="gSeQkJcZgtZhVVVM5ms9-41" target="gSeQkJcZgtZhVVVM5ms9-55">
          <mxGeometry width="50" height="50" relative="1" as="geometry">
            <mxPoint x="400" y="820" as="sourcePoint" />
            <mxPoint x="450" y="770" as="targetPoint" />
          </mxGeometry>
        </mxCell>
      </root>
    </mxGraphModel>
  </diagram>
</mxfile>
